<svg width="93" height="92" viewBox="0 0 93 92" fill="none" xmlns="http://www.w3.org/2000/svg">
<path d="M46.4999 90.7917C71.2377 90.7917 91.2916 70.7378 91.2916 46C91.2916 21.2623 71.2377 1.20834 46.4999 1.20834C21.7622 1.20834 1.70825 21.2623 1.70825 46C1.70825 70.7378 21.7622 90.7917 46.4999 90.7917Z" stroke="#C7C3C3" stroke-width="2" stroke-linecap="round" stroke-linejoin="round"/>
<path d="M46.375 56.5958C44.5281 59.1561 41.8278 60.9728 38.7603 61.7188C35.6929 62.4648 32.4598 62.0911 29.6434 60.665C26.8271 59.2389 24.6124 56.854 23.3983 53.94C22.1842 51.0259 22.0504 47.7741 23.021 44.7702C23.9916 41.7662 26.0029 39.2075 28.6926 37.5548C31.3823 35.9022 34.5737 35.2642 37.6921 35.7557C40.8105 36.2472 43.6509 37.8359 45.7019 40.2358C47.7528 42.6357 48.8796 45.689 48.8792 48.8458C48.8792 49.7167 48.7944 50.5785 48.625 51.4312" stroke="#C7C3C3" stroke-width="2" stroke-linecap="round" stroke-linejoin="round"/>
<path d="M67.9353 37.6271C71.4608 37.6271 74.3187 34.7692 74.3187 31.2438C74.3187 27.7183 71.4608 24.8604 67.9353 24.8604C64.4099 24.8604 61.552 27.7183 61.552 31.2438C61.552 34.7692 64.4099 37.6271 67.9353 37.6271Z" stroke="#C7C3C3" stroke-width="2" stroke-linecap="round" stroke-linejoin="round"/>
<path d="M26.3 27.5146C28.6035 27.5146 30.4708 25.6472 30.4708 23.3438C30.4708 21.0403 28.6035 19.1729 26.3 19.1729C23.9965 19.1729 22.1292 21.0403 22.1292 23.3438C22.1292 25.6472 23.9965 27.5146 26.3 27.5146Z" stroke="#C7C3C3" stroke-width="2" stroke-linecap="round" stroke-linejoin="round"/>
<path d="M58.3145 18.4854C60.0081 18.4854 61.3811 17.1124 61.3811 15.4188C61.3811 13.7251 60.0081 12.3521 58.3145 12.3521C56.6208 12.3521 55.2478 13.7251 55.2478 15.4188C55.2478 17.1124 56.6208 18.4854 58.3145 18.4854Z" stroke="#C7C3C3" stroke-width="2" stroke-linecap="round" stroke-linejoin="round"/>
<path d="M83.5977 47.0646C84.7311 47.0646 85.6498 45.3987 85.6498 43.3438C85.6498 41.2888 84.7311 39.6229 83.5977 39.6229C82.4644 39.6229 81.5457 41.2888 81.5457 43.3438C81.5457 45.3987 82.4644 47.0646 83.5977 47.0646Z" stroke="#C7C3C3" stroke-width="2" stroke-linecap="round" stroke-linejoin="round"/>
<path d="M80.1332 66.8625C81.3056 66.8625 82.2561 65.3692 82.2561 63.5271C82.2561 61.685 81.3056 60.1917 80.1332 60.1917C78.9607 60.1917 78.0103 61.685 78.0103 63.5271C78.0103 65.3692 78.9607 66.8625 80.1332 66.8625Z" stroke="#C7C3C3" stroke-width="2" stroke-linecap="round" stroke-linejoin="round"/>
<path d="M53.9353 71.1229C56.2606 71.1229 58.1457 69.2379 58.1457 66.9125C58.1457 64.5872 56.2606 62.7021 53.9353 62.7021C51.6099 62.7021 49.7249 64.5872 49.7249 66.9125C49.7249 69.2379 51.6099 71.1229 53.9353 71.1229Z" stroke="#C7C3C3" stroke-width="2" stroke-linecap="round" stroke-linejoin="round"/>
<path d="M37.9437 86.0708C40.5394 86.0708 42.6437 83.9666 42.6437 81.3708C42.6437 78.7751 40.5394 76.6708 37.9437 76.6708C35.3479 76.6708 33.2437 78.7751 33.2437 81.3708C33.2437 83.9666 35.3479 86.0708 37.9437 86.0708Z" stroke="#C7C3C3" stroke-width="2" stroke-linecap="round" stroke-linejoin="round"/>
<path d="M15.9478 61.0438C17.3205 61.0438 18.4332 59.931 18.4332 58.5583C18.4332 57.1857 17.3205 56.0729 15.9478 56.0729C14.5752 56.0729 13.4624 57.1857 13.4624 58.5583C13.4624 59.931 14.5752 61.0438 15.9478 61.0438Z" stroke="#C7C3C3" stroke-width="2" stroke-linecap="round" stroke-linejoin="round"/>
<path d="M36.2353 9.825C38.0774 9.825 39.5707 9.07881 39.5707 8.15834C39.5707 7.23786 38.0774 6.49167 36.2353 6.49167C34.3932 6.49167 32.8999 7.23786 32.8999 8.15834C32.8999 9.07881 34.3932 9.825 36.2353 9.825Z" stroke="#C7C3C3" stroke-width="2" stroke-linecap="round" stroke-linejoin="round"/>
<path d="M51.7498 79.775C52.844 79.775 53.7311 78.888 53.7311 77.7938C53.7311 76.6995 52.844 75.8125 51.7498 75.8125C50.6556 75.8125 49.7686 76.6995 49.7686 77.7938C49.7686 78.888 50.6556 79.775 51.7498 79.775Z" stroke="#C7C3C3" stroke-width="2" stroke-linecap="round" stroke-linejoin="round"/>
<path d="M36.6519 46.85C38.2788 46.85 39.5977 45.5311 39.5977 43.9042C39.5977 42.2772 38.2788 40.9583 36.6519 40.9583C35.025 40.9583 33.7061 42.2772 33.7061 43.9042C33.7061 45.5311 35.025 46.85 36.6519 46.85Z" stroke="#C7C3C3" stroke-width="2" stroke-linecap="round" stroke-linejoin="round"/>
<path d="M48.9437 57.3396C50.5453 57.3396 51.8437 56.0412 51.8437 54.4396C51.8437 52.838 50.5453 51.5396 48.9437 51.5396C47.3421 51.5396 46.0437 52.838 46.0437 54.4396C46.0437 56.0412 47.3421 57.3396 48.9437 57.3396Z" stroke="#C7C3C3" stroke-width="2" stroke-linecap="round" stroke-linejoin="round"/>
<path d="M45.2292 90.775C35.5292 77.9958 30.25 62.1958 30.25 45.9167C30.25 29.7729 35.4417 14.0917 45 1.36459" stroke="#C7C3C3" stroke-width="2" stroke-linecap="round" stroke-linejoin="round"/>
</svg>
