<svg width="21" height="22" viewBox="0 0 21 22" fill="none" xmlns="http://www.w3.org/2000/svg">
<path d="M10.5 11C13.375 11 15.7083 8.90625 15.7083 6.3125C15.7083 3.71875 13.375 1.625 10.5 1.625V11ZM10.5 11C10.5 13.875 12.5937 16.2083 15.1875 16.2083C17.7812 16.2083 19.875 13.875 19.875 11H10.5ZM10.5 11C7.625 11 5.29167 13.0937 5.29167 15.6875C5.29167 18.2812 7.625 20.375 10.5 20.375V11ZM10.5 11C10.5 8.125 8.40625 5.79167 5.8125 5.79167C3.21875 5.79167 1.125 8.125 1.125 11H10.5Z" stroke="#C7C3C3" stroke-width="2.08333" stroke-linecap="round" stroke-linejoin="round"/>
</svg>
