<svg width="9" height="9" viewBox="0 0 9 9" fill="none" xmlns="http://www.w3.org/2000/svg">
<path d="M0.183617 0.350243C0.241674 0.292039 0.310643 0.24586 0.386575 0.214352C0.462506 0.182844 0.543908 0.166626 0.626117 0.166626C0.708326 0.166626 0.789728 0.182844 0.865659 0.214352C0.941591 0.24586 1.01056 0.292039 1.06862 0.350243L4.37612 3.65899L7.68362 0.350243C7.74173 0.292133 7.81071 0.246038 7.88664 0.214589C7.96256 0.18314 8.04394 0.166953 8.12612 0.166953C8.2083 0.166953 8.28967 0.18314 8.3656 0.214589C8.44152 0.246038 8.51051 0.292133 8.56862 0.350243C8.62673 0.408353 8.67282 0.477339 8.70427 0.553263C8.73572 0.629188 8.75191 0.710563 8.75191 0.792743C8.75191 0.874923 8.73572 0.956298 8.70427 1.03222C8.67282 1.10815 8.62673 1.17713 8.56862 1.23524L5.25987 4.54274L8.56862 7.85024C8.62673 7.90835 8.67282 7.97734 8.70427 8.05326C8.73572 8.12919 8.75191 8.21056 8.75191 8.29274C8.75191 8.37492 8.73572 8.4563 8.70427 8.53222C8.67282 8.60815 8.62673 8.67713 8.56862 8.73524C8.51051 8.79335 8.44152 8.83945 8.3656 8.8709C8.28967 8.90235 8.2083 8.91853 8.12612 8.91853C8.04394 8.91853 7.96256 8.90235 7.88664 8.8709C7.81071 8.83945 7.74173 8.79335 7.68362 8.73524L4.37612 5.42649L1.06862 8.73524C1.01051 8.79335 0.941521 8.83945 0.865597 8.8709C0.789672 8.90235 0.708297 8.91853 0.626117 8.91853C0.543937 8.91853 0.462562 8.90235 0.386637 8.8709C0.310713 8.83945 0.241727 8.79335 0.183617 8.73524C0.125507 8.67713 0.0794115 8.60815 0.0479627 8.53222C0.0165138 8.4563 0.000327229 8.37492 0.000327229 8.29274C0.000327229 8.21056 0.0165138 8.12919 0.0479627 8.05326C0.0794115 7.97734 0.125507 7.90835 0.183617 7.85024L3.49237 4.54274L0.183617 1.23524C0.125413 1.17719 0.0792341 1.10822 0.047726 1.03229C0.016218 0.956354 0 0.874952 0 0.792743C0 0.710534 0.016218 0.629132 0.047726 0.553201C0.0792341 0.477269 0.125413 0.4083 0.183617 0.350243Z" fill="#C7C3C3"/>
</svg>
